<svg id="Layer_1_1_" enable-background="new 0 0 64 64" height="512" viewBox="0 0 64 64" width="512" xmlns="http://www.w3.org/2000/svg"><path d="m28.758 46 3.115-10.776c.748-2.804 1.127-5.694 1.127-8.595v-3.629h12v3.629c0 2.902.379 5.791 1.126 8.595l4.85 16.776 3.024 9h-29z" fill="#7a7a7a"/><path d="m45.464 59c-7.853 0-13.614-7.382-11.705-15l3.115-10.776c.747-2.804 1.126-5.694 1.126-8.595v-1.629h-5v3.629c0 2.902-.379 5.791-1.126 8.595l-3.116 10.776-3.758 15h29l-.672-2z" fill="#595959"/><path d="m61.297 6.891-.297-.891c0-1.657-1.343-3-3-3-1.355 0-2.487.905-2.859 2.139-.861-.701-1.944-1.139-3.141-1.139-2.761 0-5 2.239-5 5-1.068 0-2.017.578-2.521 1.516-.259.482-.39 1.031-.398 1.577-.008.513.293 1.157-.156 1.555-.462.409-1.293.492-1.851.278-.677-.26-.747-.93-1.281-1.33-1.224-.917-3.118-.841-4.222.685-.39.54-.571 1.207-.571 1.873v7.846h6v-3.283c0-1.026.656-1.936 1.629-2.26l.239-.08c1.474-.491 3.109.532 3.132 2.085v.037.285c0 2.419 1.618 4.653 3.992 5.116 3.203.627 6.008-1.809 6.008-4.9 0-.065-.017-.125-.019-.19.848.308 1.841.317 2.961-.557.685-.535 1.058-1.383 1.058-2.253 1.291-3.228 1.397-6.81.297-10.109z" fill="#d1d1d1"/><path d="m61.737 8.576c-.198 1.133-.711 2.189-.931 3.333-.187.97-.424 1.952-1.203 2.561-.71.554-1.526.598-2.129.188-.563-.383-1.162-.778-1.929-.607-.735.164-1.337.772-1.497 1.508-.074.339-.06.666.023.963.331 1.196.192 2.515-.701 3.377-.929.897-2.248 1.319-3.938.989-.929-.182-1.747-.614-2.432-1.199v.097c0 2.419 1.618 4.653 3.992 5.116 3.203.625 6.008-1.811 6.008-4.902 0-.065-.017-.125-.019-.19.848.308 1.841.317 2.961-.557.685-.535 1.058-1.383 1.058-2.253 1.074-2.686 1.315-5.615.737-8.424z" fill="#b3b3b3"/><path d="m42.984 14.022c-.319.035-.646.006-.91-.096-.677-.26-.747-.93-1.281-1.33-1.224-.917-3.118-.841-4.222.685-.355.492-.529 1.089-.559 1.695 1.093.826 2.513 1.241 4.058.908 1.172-.252 2.203-.933 2.914-1.862z" fill="#b3b3b3"/><path d="m51 57h10v4h-10z" fill="#d1d1d1"/><path d="m56 52-5 5h10z" fill="#201e57"/><path d="m37 4c-2.452 0-4.483 1.768-4.909 4.098-.853-.677-1.918-1.098-3.091-1.098h-.028c-2.296 0-4.467-.992-6.012-2.69-.732-.805-1.787-1.31-2.96-1.31-1.864 0-3.43 1.275-3.874 3l-.033.078c-.032-.025-.061-.054-.093-.078l.068.136-.042.099-.026-.235c-.836-.628-1.874-1-3-1-2.761 0-5 2.239-5 5s2.239 5 5 5v4h9v-2.172c0-1.562 1.266-2.828 2.828-2.828.75 0 1.47.298 2 .828l1.127 1.127c.783.783 1.969 1.084 2.989.651 1.524-.647 2.659-2.031 2.965-3.704 1.106.878 2.568 1.325 4.162.982 1.906-.41 3.449-1.95 3.828-3.862.635-3.209-1.803-6.022-4.899-6.022z" fill="#d1d1d1"/><path d="m11.757 7.006c1.455-.071 2.813.645 3.788 1.727.293.325.533.638.727.941.521.814 1.818.34 1.64-.61-.005-.025-.009-.049-.014-.074-.406-2.002-2.066-3.608-4.084-3.926-2.715-.429-5.089 1.333-5.668 3.787.868-1.062 2.15-1.774 3.611-1.845z" fill="#b3b3b3"/><path d="m41.764 7.503c-.524 1.684-1.952 3.006-3.694 3.381-.972.209-1.896.124-2.719-.173-.753-.272-1.601.02-1.991.72-.539.969-1.389 1.74-2.417 2.176-1.019.432-2.206.132-2.989-.651l-.229-.229c-.431-.431-.69-.987-.837-1.578-.092-.368-.234-.725-.4-1.059-.667-1.342-2.471-1.633-3.484-.529-.369.401-.725.881-1.004 1.439-.452.904-.694 1.798-.829 2.518-.061.146-.105.289-.113.424-.058 1.058-.921 2.058-2.058 2.058h-6v3h9v-2.058c0-1.122.598-2.205 1.618-2.674 1.134-.521 2.395-.255 3.211.56l1.127 1.127c.783.783 1.969 1.084 2.989.651 1.524-.646 2.659-2.031 2.965-3.704 1.106.878 2.569 1.325 4.163.982 1.909-.412 3.449-1.949 3.827-3.865.174-.887.108-1.741-.136-2.516z" fill="#b3b3b3"/><path d="m30 57h21v4h-21z" fill="#d1d1d1"/><path d="m51 57 5-5h-26v5" fill="#1a76a3"/><path d="m28.884 45.565-2.758-10.341c-.747-2.804-1.126-5.694-1.126-8.595v-5.629h-14v5 .629c0 2.902-.379 5.791-1.126 8.595l-6.874 25.776h30z" fill="#7a7a7a"/><path d="m11.177 43.336 2.697-10.112c.747-2.804 1.126-5.694 1.126-8.595v-.629-3h-4v5 .629c0 2.902-.379 5.791-1.126 8.595l-6.874 25.776h30l-.533-2h-9.255c-8.184 0-14.143-7.757-12.035-15.664z" fill="#595959"/><path d="m20 2c-1.863 0-3.517 1.036-4.377 2.614-.812-.397-1.699-.614-2.623-.614-3.309 0-6 2.691-6 6 0 2.967 2.167 5.431 5 5.91v2.09h2v-2h3v-2h-4c-2.206 0-4-1.794-4-4s1.794-4 4-4c.874 0 1.704.276 2.399.799 1.018.765 1.601 1.931 1.601 3.201h2c0-1.609-.63-3.102-1.742-4.219.474-1.069 1.54-1.781 2.742-1.781 1.654 0 3 1.346 3 3h2c0-2.757-2.243-5-5-5zm-3.98 3.973-.02.027z"/><path d="m58 2c-1.326 0-2.52.643-3.251 1.684-.849-.45-1.782-.684-2.749-.684-3.009 0-5.5 2.228-5.928 5.12-1.757.421-3.072 1.995-3.072 3.88h2c0-1.103.897-2 2-2s2 .897 2 2h2c0-1.826-1.237-3.352-2.911-3.83.384-1.808 1.99-3.17 3.911-3.17.908 0 1.775.316 2.509.914.259.21.607.28.924.181.319-.098.569-.348.665-.667.257-.854 1.022-1.428 1.902-1.428 1.103 0 2 .897 2 2h2c0-2.206-1.794-4-4-4z"/><path d="m50.8 25.883c.396.078.795.116 1.19.116 1.392 0 2.74-.474 3.822-1.365 1.129-.93 1.867-2.218 2.104-3.633.917.02 1.795-.298 2.641-.958.904-.707 1.443-1.844 1.443-3.043h-2c0 .588-.252 1.136-.673 1.465-.873.681-1.502.587-2.004.405-.312-.114-.661-.063-.931.132-.269.196-.422.513-.41.846.001.035.013.117.018.152 0 1.2-.532 2.326-1.459 3.089-.941.774-2.134 1.069-3.357.831-1.845-.36-3.184-2.099-3.184-4.135v-.285c0-1.93-1.57-3.5-3.5-3.5s-3.5 1.57-3.5 3.5v2.5h-4v-5h-2v5h-2c-.552 0-1 .448-1 1v3.628c0 2.815-.368 5.62-1.087 8.317l-1.99 6.884-1.83-6.864c-.725-2.716-1.093-5.522-1.093-8.337v-5.628c0-.552-.448-1-1-1h-14c-.552 0-1 .448-1 1v5.628c0 2.815-.368 5.62-1.093 8.337l-6.873 25.777c-.08.3-.016.621.173.867s.482.391.793.391h30 28c.552 0 1-.448 1-1v-4c0-.265-.105-.52-.293-.707l-5-5c-.187-.188-.442-.293-.707-.293h-4.272l-4.635-16.034c-.725-2.717-1.093-5.523-1.093-8.338v-3.628c0-.552-.448-1-1-1h-2v-2.5c0-.827.673-1.5 1.5-1.5s1.5.673 1.5 1.5v.285c0 2.99 2.019 5.554 4.8 6.098zm-46.498 34.117 6.538-24.519c.393-1.473.684-2.971.878-4.481h9.282v-2h-9.086c.046-.665.067-1.332.074-2h7.012v-2h-7v-3h12v4.628c0 2.989.39 5.967 1.16 8.853l2.686 10.073-.048.167.101.029 3.799 14.25zm27.6-7h21.684l-3 3h-7.586v2h7v2h-16.232zm20.098 7v-2h8v2zm6.586-4h-5.172l2.586-2.586zm-13.42-20.499 4.48 15.499h-18.278l-1.447-5.425 2.918-10.094c.306-1.147.535-2.311.72-3.481h8.441v-2h-8.184c.066-.665.113-1.332.139-2h6.045v-2h-6v-2h10v2.628c0 2.989.39 5.968 1.166 8.873z"/><path d="m23 12h2c0-.874.276-1.704.799-2.4l-1.599-1.201c-.785 1.045-1.2 2.29-1.2 3.601z"/><path d="m37.86 12.907c-1.185.254-2.368-.025-3.33-.788-.275-.219-.644-.275-.974-.153-.329.124-.568.411-.632.756-.243 1.329-1.129 2.437-2.372 2.963-.609.259-1.371.083-1.892-.438l-1.126-1.126c-.721-.723-1.683-1.121-2.705-1.121-2.112 0-3.829 1.717-3.829 3.829v2.171h2v-2.171c0-1.009.82-1.829 1.829-1.829.488 0 .947.19 1.293.536l1.126 1.126c1.092 1.092 2.733 1.439 4.087.865 1.423-.604 2.536-1.716 3.144-3.096 1.175.56 2.485.714 3.802.431 2.298-.495 4.146-2.361 4.598-4.645.356-1.798-.096-3.629-1.241-5.023-1.145-1.394-2.835-2.194-4.638-2.194-2.413 0-4.537 1.438-5.479 3.569-.788-.375-1.641-.569-2.521-.569v2c.889 0 1.743.305 2.469.881.276.22.646.277.973.153.329-.124.569-.411.632-.756.348-1.9 1.999-3.278 3.926-3.278 1.202 0 2.329.533 3.093 1.463.775.943 1.068 2.138.825 3.365-.3 1.512-1.528 2.75-3.058 3.079z"/></svg>