<svg id="Layer_2" enable-background="new 0 0 64 64" height="512" viewBox="0 0 64 64" width="512" xmlns="http://www.w3.org/2000/svg"><g><g><path d="m22 3v2c0 .55-.45 1-1 1h-1-6-1c-.55 0-1-.45-1-1v-2c0-.55.45-1 1-1h8c.55 0 1 .45 1 1z" fill="#51565b"/><path d="m24 15.5v4.28c-.26-.12-.5-.28-.71-.49l-.58-.58c-.46-.46-1.07-.71-1.71-.71-.35 0-.69.07-1 .22v-2.22h-6v5.22c-.2.16-.38.35-.52.56l-1.48 2.22h-2v-8.5c0-1.57.74-3.06 2-4l1.6-1.2c.25-.19.4-.49.4-.8v-3.5h6v3.5c0 .31.15.61.4.8l1.6 1.2c1.26.94 2 2.43 2 4z" fill="#ccd1d9"/><path d="m20 16v2.22c-.26.12-.5.28-.71.49l-.82.82c-.31.31-.69.53-1.12.63l-2.44.61c-.34.09-.65.24-.91.45v-5.22z" fill="#51565b"/><path d="m6 54v8h-3c-.55 0-1-.45-1-1v-6c0-.55.45-1 1-1z" fill="#ffeaa7"/><path d="m10 54c0 2.21 1.79 4 4 4s4-1.79 4-4h4v7c0 .55-.45 1-1 1h-15v-8h2z" fill="#d3a06c"/><path d="m14 54h4c0 2.21-1.79 4-4 4s-4-1.79-4-4z" fill="#ffeaa7"/><path d="m30 50 1.2 1.2-.51.34c-.44.29-.75.75-.85 1.27l-.36 1.8-2.77-2.07c-.46-.35-1.02-.54-1.6-.54-.71 0-1.39.28-1.89.78l-1.22 1.22h-4l-4-4-1.29-1.29c-.46-.46-.71-1.07-.71-1.71s.25-1.25.71-1.71l1.29-1.29 3.29-3.29c.21-.21.45-.37.71-.49.31-.15.65-.22 1-.22.64 0 1.25.25 1.71.71l1.29 1.29 4 4z" fill="#ef7385"/><circle cx="20" cy="48" fill="#ffeaa7" r="2"/><path d="m45 7 3.81 1.53c.72.28 1.19.98 1.19 1.75 0 .97-.74 1.79-1.72 1.88l-9.28.84.84-9.28c.09-.98.91-1.72 1.88-1.72.77 0 1.47.47 1.75 1.19z" fill="#b27946"/><path d="m32 24h-20l1.48-2.22c.14-.21.32-.4.52-.56.26-.21.57-.36.91-.45l2.44-.61c.43-.1.81-.32 1.12-.63l.82-.82c.21-.21.45-.37.71-.49.31-.15.65-.22 1-.22.64 0 1.25.25 1.71.71l.58.58c.21.21.45.37.71.49.31.15.65.22 1 .22h2c.64 0 1.25.25 1.71.71l1.29 1.29z" fill="#ffeaa7"/><path d="m59 62h-33v-1.93c0-.67.33-1.29.89-1.66l1.42-.95c.44-.29.75-.75.85-1.27l.32-1.58.36-1.8c.1-.52.41-.98.85-1.27l.51-.34 1.1-.73c.46-.31.99-.47 1.54-.47.05 0 .11 0 .16.01.68.03 1.33.32 1.82.81l.36.36c.53.53 1.24.82 1.98.82.55 0 1.08-.16 1.54-.47l1.6-1.07c.46-.3.99-.46 1.54-.46.64 0 1.23.22 1.7.58.48.38.83.9.98 1.52l.16.63c.19.75.86 1.27 1.63 1.27.44 0 .87-.18 1.18-.49l.74-.74c.49-.49 1.16-.77 1.86-.77 1.14 0 2.15.73 2.51 1.81l.05.15c.22.65.75 1.14 1.42 1.31l1.66.41c.77.2 1.35.83 1.49 1.61l.23 1.38z" fill="#ffeaa7"/><path d="m36.72 42.73c-1.7 2.05-2.66 4.62-2.72 7.28v-17.01c0-.55-.45-1-1-1h-2c-.55 0-1 .45-1 1v17l-4-4v-13c0-.55-.45-1-1-1h-2c-.55 0-1 .45-1 1v9l-1.29-1.29c-.46-.46-1.07-.71-1.71-.71-.35 0-.69.07-1 .22v-7.22c0-.55-.45-1-1-1h-2c-.55 0-1 .45-1 1v11l-1.29 1.29c-.46.46-.71 1.07-.71 1.71s.25 1.25.71 1.71l1.29 1.29v4h-4-2v-26h32v10.8z" fill="#5cd6b3"/><g fill="#37bc9b"><path d="m12 24h20 9c.55 0 1 .45 1 1v1 1c0 .55-.45 1-1 1h-1-32-1c-.55 0-1-.45-1-1v-2c0-.55.45-1 1-1h3z"/><path d="m32.3 50.47-1.1.73-1.2-1.2v-17c0-.55.45-1 1-1h2c.55 0 1 .45 1 1v17.01c-.05-.01-.11-.01-.16-.01-.55 0-1.08.16-1.54.47z"/><path d="m26 33v13l-4-4v-9c0-.55.45-1 1-1h2c.55 0 1 .45 1 1z"/><path d="m18 54h-4v-4z"/><path d="m18 33v7.22c-.26.12-.5.28-.71.49l-3.29 3.29v-11c0-.55.45-1 1-1h2c.55 0 1 .45 1 1z"/></g><path d="m52 30v4h-8v-4h4z" fill="#b27946"/><path d="m47.79 29.58.21.42h-4l-2-4c.61-1.23 1.87-2 3.24-2h.88c.23 1.94.79 3.82 1.67 5.58z" fill="#cf9e76"/><path d="m54 24c0 1.96-.58 3.87-1.66 5.5l-.34.5h-4l-.21-.42c-.88-1.76-1.44-3.64-1.67-5.58-.08-.66-.12-1.33-.12-2 3 0 5 .5 6.25 1s1.75 1 1.75 1z" fill="#cf9e76"/><path d="m59.28 42.73c1.76 2.11 2.72 4.77 2.72 7.52 0 1.65-.34 3.22-.95 4.65-.62 1.42-1.51 2.7-2.6 3.77l-.23-1.38c-.14-.78-.72-1.41-1.49-1.61l-1.66-.41c-.67-.17-1.2-.66-1.42-1.31l-.05-.15c-.36-1.08-1.37-1.81-2.51-1.81-.7 0-1.37.28-1.86.77l-.74.74c-.31.31-.74.49-1.18.49-.77 0-1.44-.52-1.63-1.27l-.16-.63c-.15-.62-.5-1.14-.98-1.52-.47-.36-1.06-.58-1.7-.58-.55 0-1.08.16-1.54.46l-1.6 1.07c-.46.31-.99.47-1.54.47-.74 0-1.45-.29-1.98-.82l-.36-.36c-.49-.49-1.14-.78-1.82-.81.06-2.66 1.02-5.23 2.72-7.28l3.28-3.93 4-4.8h8z" fill="#cf9e76"/></g><g><path d="m20 45c-1.654 0-3 1.346-3 3s1.346 3 3 3 3-1.346 3-3-1.346-3-3-3zm0 4c-.552 0-1-.448-1-1s.448-1 1-1 1 .448 1 1-.448 1-1 1z"/><path d="m41 54h2v2h-2z"/><path d="m49 57h2v2h-2z"/><path d="m32.553 57.658-.447.895 1.789.895.447-.895c.17-.341.512-.553.894-.553h1.764v-2h-1.764c-1.143 0-2.172.636-2.683 1.658z"/><path d="m63 50.253c0-2.976-1.049-5.874-2.954-8.161l-7.046-8.455v-3.334l.168-.252c1.198-1.798 1.832-3.891 1.832-6.051v-.414l-.293-.293c-.234-.234-2.473-2.293-8.707-2.293h-1v1c0 .338.01.677.03 1.014-.886.039-1.717.326-2.419.812-.364-.498-.948-.826-1.611-.826h-8.586l-1-1 1.939-1.939 6.505.929.283-1.98-5.02-.717 1.232-1.232 6.505.929.283-1.98-5.02-.717 1.329-1.329 8.924-.811c1.498-.137 2.626-1.374 2.626-2.876 0-1.187-.712-2.238-1.814-2.681l-3.416-1.366-1.367-3.417c-.442-1.101-1.494-1.813-2.68-1.813-1.502 0-2.738 1.128-2.875 2.625l-.811 8.924-1.329 1.329-.717-5.02-1.98.283.929 6.505-1.232 1.232-.717-5.02-1.98.283.929 6.505-1.94 1.94-.586-.586c-.645-.645-1.502-1-2.414-1h-2v-3.5c0-1.878-.897-3.673-2.399-4.8l-1.601-1.2v-2.5c1.103 0 2-.897 2-2v-2c0-1.103-.897-2-2-2h-8c-1.103 0-2 .897-2 2v2c0 1.102.897 2 2 2l-.001 2.5-1.6 1.2c-1.502 1.127-2.399 2.922-2.399 4.8v7.5h-2c-1.103 0-2 .897-2 2v2c0 1.103.897 2 2 2v24h-4c-1.103 0-2 .897-2 2v6c0 1.103.897 2 2 2h18c1.103 0 2-.897 2-2v-6.586l.924-.924c.57-.568 1.544-.638 2.19-.155l2.26 1.695-.193.962c-.053.262-.204.487-.426.636l-1.42.946c-.836.558-1.335 1.491-1.335 2.496v2.93h35.181l-.668-4.009c2.244-2.374 3.487-5.45 3.487-8.738zm-22.16-46.446c.042-.46.422-.807.883-.807.364 0 .688.219.823.557l1.684 4.213 4.212 1.684c.339.136.558.459.558.823 0 .461-.347.841-.807.883l-6.533.594 2.047-2.047-1.414-1.414-2.047 2.047zm12.147 20.679c-.087 1.591-.595 3.122-1.483 4.455l-.039.059h-2.839c-.911-1.863-1.458-3.908-1.593-5.979 3.503.151 5.293 1.043 5.954 1.465zm-1.987 6.514v2h-6v-2zm-5.764-6h.021c.234 1.372.625 2.718 1.167 4h-1.807l-1.465-2.93c.49-.659 1.242-1.07 2.084-1.07zm-2.236 5.236v3.401l-2 2.4v-7.037c.444 0 .851-.151 1.183-.397zm-18-9.236h2c.378 0 .732.147 1 .414l1.586 1.586h-15.718l.446-.669c.195-.293.492-.502.833-.588l2.447-.611c.601-.15 1.148-.461 1.585-.897l.82-.82c.535-.533 1.465-.533 2 0l.587.585c.644.645 1.502 1 2.414 1zm-10-1.28v-2.72h4v.666c-.144.102-.287.207-.414.334l-.82.82c-.181.181-.408.31-.656.372zm-2-16.72h8l.002 2h-8.002zm-2 12.5c0-1.252.599-2.448 1.601-3.2l1.598-1.199c.501-.375.801-.974.801-1.601v-2.5h4v2.5c0 .627.3 1.226.8 1.6l1.6 1.2c1.001.752 1.6 1.948 1.6 3.2v2.166c-.586-.415-1.29-.633-2-.633v-2.033h-8v5.79c-.126.135-.246.276-.35.432l-1.185 1.778h-.465zm-4 9.5h34l.002 2h-34.002zm26 6h-2c-1.103 0-2 .897-2 2v14.586l-2-2v-12.586c0-1.103-.897-2-2-2h-2c-1.103 0-2 .897-2 2v6.666c-.586-.415-1.29-.633-2-.633v-6.033c0-1.103-.897-2-2-2h-2c-1.103 0-2 .897-2 2v10.586l-1 1c-.645.645-1 1.502-1 2.414s.355 1.77 1 2.414l1 1v2.586h-4v-24h30v9.437l-3.046 3.655c-.35.421-.662.869-.954 1.328v-10.42c0-1.103-.897-2-2-2zm0 2v16.117c-.445.095-.874.264-1.258.52l-.415.277-.327-.328v-16.586zm-8 0v10.586l-2-2v-8.586zm-8 0v6.666c-.144.102-.287.207-.414.334l-1.586 1.586v-8.586zm-.184 22c-.414 1.161-1.514 2-2.816 2s-2.402-.839-2.816-2zm-1.816-2v-.586l.586.586zm-10 8h-2v-6h2zm2 0v-6h2.101c.465 2.279 2.484 4 4.899 4s4.434-1.721 4.899-4h2.101l.002 6zm20.313-9.265c-1.406-1.056-3.562-.901-4.804.341l-.923.924h-3.172l-5-5c-.267-.268-.414-.622-.414-1s.147-.732.414-1l4.586-4.586c.535-.533 1.465-.533 2 0l9.673 9.673c-.415.415-.699.942-.816 1.529l-.048.241zm-.313 9.265v-.93c0-.335.166-.646.445-.832l1.421-.947c.667-.445 1.12-1.123 1.276-1.907l.676-3.376c.053-.262.204-.487.426-.636l1.607-1.071c.687-.456 1.676-.359 2.259.224l.365.365c1.235 1.237 3.324 1.445 4.782.474l1.6-1.066c.291-.195.631-.298.981-.298.813 0 1.519.551 1.716 1.34l.159.636c.298 1.191 1.365 2.024 2.594 2.024.714 0 1.386-.278 1.891-.783l.735-.735c.31-.311.723-.482 1.162-.482.708 0 1.335.452 1.559 1.122l.051.152c.326.979 1.118 1.712 2.119 1.962l1.661.415c.388.098.68.413.745.806l.589 3.543zm29.97-6.288-1.662-.415c-.333-.084-.598-.329-.706-.653l-.051-.152c-.497-1.491-1.886-2.492-3.456-2.492-.973 0-1.888.379-2.576 1.067l-.735.735c-.345.343-1.013.159-1.13-.312l-.159-.636c-.421-1.68-1.925-2.854-3.657-2.854-.746 0-1.469.219-2.09.633l-1.6 1.066c-.687.458-1.675.361-2.259-.224l-.365-.365c-.412-.413-.924-.7-1.471-.878.206-2.143 1.054-4.199 2.438-5.859l6.978-8.373h7.062l6.978 8.372c1.606 1.929 2.491 4.372 2.491 6.881 0 2.269-.702 4.419-1.992 6.224-.359-.866-1.103-1.531-2.038-1.765z"/><path d="m58.884 48.838c-.253-1.542-.914-2.989-1.911-4.186l-1.911-2.293-1.537 1.281 1.912 2.293c.769.922 1.279 2.039 1.475 3.229z"/><path d="m56.562 52.645 1.869.711c.276-.728.454-1.487.527-2.261l-1.99-.189c-.056.594-.193 1.179-.406 1.739z"/></g></g></svg>