<?xml version="1.0" encoding="utf-8"?>
<!-- Generator: Adobe Illustrator 25.2.0, SVG Export Plug-In . SVG Version: 6.00 Build 0)  -->
<svg version="1.1" id="Pie_Chart" xmlns="http://www.w3.org/2000/svg" xmlns:xlink="http://www.w3.org/1999/xlink" x="0px" y="0px"
	 viewBox="0 0 792 576" style="enable-background:new 0 0 792 576;" xml:space="preserve">
<style type="text/css">
	.st0{fill:#FFFFFF;}
	.st1{fill:#E73400;}
	.st2{fill:#FFAF2E;}
	.st3{fill:#2E63FF;}
</style>
<g>
	<g>
		
			<ellipse transform="matrix(0.7071 -0.7071 0.7071 0.7071 -83.5055 371.85)" class="st0" cx="407.11" cy="286.73" rx="243.99" ry="243.99"/>
		<path class="st1" d="M211.46,160.42c-23.59,36.41-37.3,79.78-37.3,126.3c0,83.34,44,156.59,109.99,197.77l115.57-196.11
			L211.46,160.42z"/>
		<path class="st2" d="M407.11,53.78c-77.98,0-147.13,38.52-189.43,97.53l191.13,129.9h231.18
			C637.05,155.3,533.71,53.78,407.11,53.78z"/>
		<path class="st3" d="M293.65,490.11c33.59,18.81,72.29,29.56,113.45,29.56c126.6,0,229.94-101.52,232.88-227.43H410.26
			L293.65,490.11z"/>
	</g>
	<g>
		<path class="st0" d="M401.57,138.4v-5.18l11.86-16.97h7.17v16.59h3.08v5.56h-3.08v4.88h-6.42v-4.88H401.57z M414.63,123.31
			l-6.31,9.53h6.31V123.31z"/>
		<path class="st0" d="M429.32,119.03c1.66-2.48,4.35-3.72,8.05-3.72s6.39,1.24,8.05,3.72c1.66,2.48,2.5,5.87,2.5,10.17
			c0,4.35-0.83,7.77-2.5,10.25c-1.66,2.48-4.35,3.72-8.05,3.72s-6.39-1.24-8.05-3.72c-1.66-2.48-2.5-5.89-2.5-10.25
			C426.83,124.9,427.66,121.51,429.32,119.03z M440.79,123.36c-0.55-1.36-1.69-2.05-3.42-2.05c-1.73,0-2.87,0.68-3.42,2.05
			c-0.55,1.36-0.83,3.31-0.83,5.84c0,1.7,0.1,3.11,0.3,4.22s0.61,2.01,1.22,2.7c0.61,0.69,1.52,1.03,2.72,1.03s2.11-0.34,2.72-1.03
			c0.61-0.69,1.02-1.59,1.22-2.7c0.2-1.11,0.3-2.52,0.3-4.22C441.62,126.67,441.34,124.73,440.79,123.36z"/>
		<path class="st0" d="M452.18,142.58c-0.71-0.66-1.07-1.48-1.07-2.46c0-1,0.36-1.84,1.07-2.51c0.71-0.68,1.63-1.01,2.76-1.01
			c1.1,0,2.01,0.34,2.72,1.01c0.71,0.67,1.07,1.51,1.07,2.51c0,0.98-0.36,1.8-1.07,2.46c-0.71,0.66-1.62,1-2.72,1
			C453.82,143.58,452.9,143.24,452.18,142.58z"/>
		<path class="st0" d="M479.38,120.68l-9.42,22.6h-6.57l9.54-21.88h-11.67v-5.48h18.13V120.68z"/>
		<path class="st0" d="M483.19,118.09c1.16-1.1,2.67-1.65,4.52-1.65c1.85,0,3.35,0.55,4.5,1.65c1.15,1.1,1.73,2.67,1.73,4.69
			c0,2.03-0.58,3.59-1.73,4.69c-1.15,1.1-2.65,1.65-4.5,1.65c-1.85,0-3.36-0.55-4.52-1.65c-1.16-1.1-1.75-2.66-1.75-4.69
			C481.44,120.75,482.02,119.19,483.19,118.09z M485.87,122.78c0,1.7,0.6,2.55,1.8,2.55c0.57,0,1.03-0.21,1.35-0.64
			c0.33-0.42,0.49-1.06,0.49-1.91c0-1.73-0.61-2.59-1.84-2.59C486.47,120.19,485.87,121.05,485.87,122.78z M506.93,116.85
			l-14.45,26.43h-6.19l14.45-26.43H506.93z M501.04,132.65c1.15-1.1,2.65-1.65,4.5-1.65c1.85,0,3.35,0.55,4.5,1.65
			c1.15,1.1,1.73,2.67,1.73,4.69c0,2.03-0.58,3.59-1.73,4.69c-1.15,1.1-2.65,1.65-4.5,1.65c-1.85,0-3.35-0.55-4.5-1.65
			c-1.15-1.1-1.73-2.67-1.73-4.69C499.31,135.32,499.89,133.76,501.04,132.65z M504.17,135.39c-0.31,0.43-0.47,1.08-0.47,1.95
			c0,1.7,0.6,2.55,1.8,2.55c0.58,0,1.03-0.21,1.35-0.64c0.33-0.43,0.49-1.06,0.49-1.91c0-0.85-0.16-1.5-0.49-1.93
			s-0.78-0.66-1.35-0.66C504.93,134.76,504.48,134.97,504.17,135.39z"/>
	</g>
	<g>
		<path class="st0" d="M220.31,316.38c2.45-2.03,4.39-3.69,5.8-4.99s2.61-2.67,3.58-4.09c0.98-1.43,1.46-2.81,1.46-4.17
			c0-1.03-0.24-1.83-0.71-2.4c-0.48-0.58-1.19-0.86-2.14-0.86c-0.95,0-1.7,0.36-2.23,1.07c-0.54,0.71-0.81,1.72-0.81,3.02h-6.19
			c0.05-2.13,0.51-3.9,1.37-5.33c0.86-1.43,2-2.48,3.42-3.15c1.41-0.67,2.98-1.01,4.71-1.01c2.98,0,5.22,0.76,6.74,2.29
			c1.51,1.53,2.27,3.51,2.27,5.97c0,2.68-0.91,5.16-2.74,7.45c-1.83,2.29-4.15,4.52-6.98,6.7h10.13v5.22h-18.84v-4.77
			C219.99,316.64,220.38,316.33,220.31,316.38z"/>
		<path class="st0" d="M260.1,300.65h-11.71v5.18c0.5-0.55,1.2-1,2.1-1.35c0.9-0.35,1.88-0.53,2.93-0.53c1.88,0,3.43,0.43,4.67,1.28
			c1.24,0.85,2.15,1.95,2.72,3.3c0.57,1.35,0.86,2.81,0.86,4.39c0,2.93-0.83,5.25-2.48,6.96c-1.65,1.71-3.98,2.57-6.98,2.57
			c-2,0-3.74-0.34-5.22-1.03c-1.48-0.69-2.61-1.65-3.42-2.87s-1.24-2.64-1.31-4.24h6.27c0.15,0.78,0.51,1.42,1.09,1.93
			c0.58,0.51,1.36,0.77,2.37,0.77c1.18,0,2.05-0.38,2.63-1.13s0.86-1.75,0.86-3c0-1.22-0.3-2.16-0.9-2.81
			c-0.6-0.65-1.48-0.98-2.63-0.98c-0.85,0-1.55,0.21-2.1,0.62c-0.55,0.41-0.91,0.96-1.09,1.63h-6.19v-16.33h17.53V300.65z"/>
		<path class="st0" d="M266.08,321.76c-0.71-0.66-1.07-1.48-1.07-2.46c0-1,0.36-1.84,1.07-2.51c0.71-0.68,1.63-1.01,2.76-1.01
			c1.1,0,2.01,0.34,2.72,1.01c0.71,0.67,1.07,1.51,1.07,2.51c0,0.98-0.36,1.8-1.07,2.46c-0.71,0.66-1.62,1-2.72,1
			C267.72,322.76,266.8,322.43,266.08,321.76z"/>
		<path class="st0" d="M286.15,317.39c1.33,0,2.26-0.59,2.82-1.76c0.55-1.18,0.83-3.09,0.83-5.74c-0.55,0.77-1.3,1.38-2.25,1.8
			c-0.95,0.43-2.02,0.64-3.19,0.64c-1.6,0-3.03-0.33-4.28-0.99c-1.25-0.66-2.23-1.65-2.95-2.96c-0.71-1.32-1.07-2.91-1.07-4.79
			c0-1.85,0.38-3.47,1.14-4.84c0.76-1.38,1.85-2.44,3.27-3.19c1.41-0.75,3.08-1.13,5.01-1.13c3.7,0,6.29,1.15,7.77,3.45
			c1.48,2.3,2.21,5.69,2.21,10.17c0,3.25-0.29,5.94-0.88,8.05c-0.59,2.11-1.58,3.72-2.96,4.82c-1.39,1.1-3.29,1.65-5.69,1.65
			c-1.9,0-3.52-0.38-4.86-1.13s-2.36-1.74-3.08-2.96c-0.71-1.22-1.12-2.58-1.22-4.05h5.93C283.07,316.4,284.22,317.39,286.15,317.39
			z M288.32,306.3c0.63-0.64,0.94-1.51,0.94-2.61c0-1.2-0.33-2.13-0.98-2.78c-0.65-0.65-1.53-0.98-2.63-0.98
			c-1.1,0-1.97,0.33-2.61,1c-0.64,0.66-0.96,1.57-0.96,2.72c0,1.08,0.32,1.94,0.96,2.61c0.64,0.66,1.56,0.99,2.76,0.99
			C286.86,307.26,287.7,306.94,288.32,306.3z"/>
		<path class="st0" d="M300.09,297.27c1.16-1.1,2.67-1.65,4.52-1.65c1.85,0,3.35,0.55,4.5,1.65c1.15,1.1,1.73,2.67,1.73,4.69
			c0,2.03-0.58,3.59-1.73,4.69c-1.15,1.1-2.65,1.65-4.5,1.65c-1.85,0-3.36-0.55-4.52-1.65c-1.16-1.1-1.75-2.66-1.75-4.69
			C298.35,299.93,298.93,298.37,300.09,297.27z M302.78,301.96c0,1.7,0.6,2.55,1.8,2.55c0.57,0,1.03-0.21,1.35-0.64
			c0.33-0.42,0.49-1.06,0.49-1.91c0-1.73-0.61-2.59-1.84-2.59C303.38,299.37,302.78,300.24,302.78,301.96z M323.83,296.03
			l-14.45,26.43h-6.19l14.45-26.43H323.83z M317.94,311.84c1.15-1.1,2.65-1.65,4.5-1.65c1.85,0,3.35,0.55,4.5,1.65
			c1.15,1.1,1.73,2.67,1.73,4.69c0,2.03-0.58,3.59-1.73,4.69c-1.15,1.1-2.65,1.65-4.5,1.65c-1.85,0-3.35-0.55-4.5-1.65
			c-1.15-1.1-1.73-2.67-1.73-4.69C316.21,314.5,316.79,312.94,317.94,311.84z M321.07,314.58c-0.31,0.42-0.47,1.08-0.47,1.95
			c0,1.7,0.6,2.55,1.8,2.55c0.58,0,1.03-0.21,1.35-0.64c0.32-0.43,0.49-1.07,0.49-1.91c0-0.85-0.16-1.5-0.49-1.93
			c-0.33-0.44-0.78-0.66-1.35-0.66C321.83,313.94,321.39,314.15,321.07,314.58z"/>
	</g>
	<g>
		<path class="st0" d="M437.68,422.43c1.65-1.45,3.89-2.18,6.72-2.18c1.88,0,3.48,0.33,4.82,0.98c1.34,0.65,2.35,1.54,3.04,2.67
			c0.69,1.13,1.03,2.39,1.03,3.79c0,1.65-0.41,3-1.24,4.03c-0.83,1.04-1.79,1.75-2.89,2.12v0.15c1.43,0.48,2.55,1.26,3.38,2.37
			s1.24,2.51,1.24,4.24c0,1.55-0.36,2.92-1.07,4.11c-0.71,1.19-1.75,2.12-3.12,2.8c-1.36,0.68-2.98,1.01-4.86,1.01
			c-3,0-5.4-0.74-7.19-2.21c-1.79-1.47-2.73-3.7-2.83-6.68h6.23c0.02,1.1,0.34,1.97,0.94,2.61c0.6,0.64,1.48,0.96,2.63,0.96
			c0.98,0,1.73-0.28,2.27-0.84c0.54-0.56,0.81-1.31,0.81-2.23c0-1.2-0.38-2.07-1.14-2.61c-0.76-0.54-1.98-0.81-3.66-0.81h-1.2v-5.22
			h1.2c1.28,0,2.31-0.22,3.1-0.66c0.79-0.44,1.18-1.22,1.18-2.35c0-0.9-0.25-1.6-0.75-2.1c-0.5-0.5-1.19-0.75-2.06-0.75
			c-0.95,0-1.66,0.29-2.12,0.86c-0.46,0.58-0.73,1.29-0.81,2.14h-6.27C435.15,425.94,436.02,423.88,437.68,422.43z"/>
		<path class="st0" d="M460.39,422.43c1.65-1.45,3.89-2.18,6.72-2.18c1.88,0,3.48,0.33,4.82,0.98c1.34,0.65,2.35,1.54,3.04,2.67
			c0.69,1.13,1.03,2.39,1.03,3.79c0,1.65-0.41,3-1.24,4.03c-0.83,1.04-1.79,1.75-2.89,2.12v0.15c1.43,0.48,2.55,1.26,3.38,2.37
			c0.83,1.1,1.24,2.51,1.24,4.24c0,1.55-0.36,2.92-1.07,4.11c-0.71,1.19-1.75,2.12-3.12,2.8c-1.36,0.68-2.98,1.01-4.86,1.01
			c-3,0-5.4-0.74-7.19-2.21c-1.79-1.47-2.73-3.7-2.83-6.68h6.23c0.02,1.1,0.34,1.97,0.94,2.61c0.6,0.64,1.48,0.96,2.63,0.96
			c0.98,0,1.73-0.28,2.27-0.84c0.54-0.56,0.81-1.31,0.81-2.23c0-1.2-0.38-2.07-1.14-2.61c-0.76-0.54-1.98-0.81-3.66-0.81h-1.2v-5.22
			h1.2c1.28,0,2.31-0.22,3.1-0.66c0.79-0.44,1.18-1.22,1.18-2.35c0-0.9-0.25-1.6-0.75-2.1c-0.5-0.5-1.19-0.75-2.06-0.75
			c-0.95,0-1.66,0.29-2.12,0.86c-0.46,0.58-0.73,1.29-0.81,2.14h-6.27C457.86,425.94,458.73,423.88,460.39,422.43z"/>
		<path class="st0" d="M481.12,447.6c-0.71-0.66-1.07-1.48-1.07-2.46c0-1,0.36-1.84,1.07-2.51c0.71-0.67,1.63-1.01,2.76-1.01
			c1.1,0,2.01,0.34,2.72,1.01c0.71,0.67,1.07,1.51,1.07,2.51c0,0.98-0.36,1.8-1.07,2.46c-0.71,0.66-1.62,0.99-2.72,0.99
			C482.76,448.59,481.84,448.26,481.12,447.6z"/>
		<path class="st0" d="M493.68,422.43c1.65-1.45,3.89-2.18,6.72-2.18c1.88,0,3.48,0.33,4.82,0.98c1.34,0.65,2.35,1.54,3.04,2.67
			c0.69,1.13,1.03,2.39,1.03,3.79c0,1.65-0.41,3-1.24,4.03c-0.82,1.04-1.79,1.75-2.89,2.12v0.15c1.43,0.48,2.55,1.26,3.38,2.37
			c0.83,1.1,1.24,2.51,1.24,4.24c0,1.55-0.36,2.92-1.07,4.11c-0.72,1.19-1.75,2.12-3.12,2.8c-1.36,0.68-2.98,1.01-4.86,1.01
			c-3,0-5.4-0.74-7.19-2.21c-1.79-1.47-2.73-3.7-2.83-6.68h6.23c0.03,1.1,0.34,1.97,0.94,2.61c0.6,0.64,1.48,0.96,2.63,0.96
			c0.97,0,1.73-0.28,2.27-0.84c0.54-0.56,0.81-1.31,0.81-2.23c0-1.2-0.38-2.07-1.14-2.61c-0.76-0.54-1.98-0.81-3.66-0.81h-1.2v-5.22
			h1.2c1.27,0,2.31-0.22,3.1-0.66c0.79-0.44,1.18-1.22,1.18-2.35c0-0.9-0.25-1.6-0.75-2.1c-0.5-0.5-1.19-0.75-2.06-0.75
			c-0.95,0-1.66,0.29-2.12,0.86c-0.46,0.58-0.73,1.29-0.81,2.14h-6.27C491.15,425.94,492.03,423.88,493.68,422.43z"/>
		<path class="st0" d="M514.76,423.1c1.16-1.1,2.67-1.65,4.52-1.65c1.85,0,3.35,0.55,4.5,1.65c1.15,1.1,1.73,2.67,1.73,4.69
			s-0.58,3.59-1.73,4.69c-1.15,1.1-2.65,1.65-4.5,1.65c-1.85,0-3.36-0.55-4.52-1.65c-1.16-1.1-1.75-2.67-1.75-4.69
			S513.59,424.2,514.76,423.1z M517.44,427.79c0,1.7,0.6,2.55,1.8,2.55c0.58,0,1.03-0.21,1.35-0.64c0.33-0.42,0.49-1.06,0.49-1.91
			c0-1.73-0.61-2.59-1.84-2.59C518.04,425.2,517.44,426.07,517.44,427.79z M538.5,421.86l-14.45,26.43h-6.19l14.45-26.43H538.5z
			 M532.61,437.67c1.15-1.1,2.65-1.65,4.5-1.65c1.85,0,3.36,0.55,4.51,1.65c1.15,1.1,1.73,2.67,1.73,4.69s-0.58,3.59-1.73,4.69
			c-1.15,1.1-2.65,1.65-4.51,1.65c-1.85,0-3.35-0.55-4.5-1.65c-1.15-1.1-1.73-2.67-1.73-4.69S531.46,438.77,532.61,437.67z
			 M535.74,440.41c-0.31,0.43-0.47,1.08-0.47,1.95c0,1.7,0.6,2.55,1.8,2.55c0.58,0,1.03-0.21,1.35-0.64
			c0.32-0.42,0.49-1.06,0.49-1.91c0-0.85-0.16-1.49-0.49-1.93c-0.33-0.44-0.78-0.66-1.35-0.66
			C536.5,439.77,536.05,439.98,535.74,440.41z"/>
	</g>
</g>
</svg>
