<svg height="512" viewBox="0 0 512 512" width="512" xmlns="http://www.w3.org/2000/svg"><g><g><g><circle cx="256" cy="120" fill="#ff9811" r="104"/><circle cx="256" cy="120" fill="#ffda44" r="80"/><path d="m160 248h64a32 32 0 0 1 32 32v32a0 0 0 0 1 0 0h-64a32 32 0 0 1 -32-32v-32a0 0 0 0 1 0 0z" fill="#91cc04"/><path d="m288 272h64a0 0 0 0 1 0 0v32a32 32 0 0 1 -32 32h-64a0 0 0 0 1 0 0v-32a32 32 0 0 1 32-32z" fill="#91cc04" transform="matrix(-1 0 0 -1 608 608)"/><path d="m144 384h224v32h-224z" fill="#e0e0e2"/><path d="m336 496h-160l-16-80h192z" fill="#a0815c"/></g><path d="m112 272h-24v80h-32v-80h-24l40-48z" fill="#91cc04"/><path d="m40 472h80v24h-80z" fill="#ffda44"/><path d="m32 448h80v24h-80z" fill="#ffeb99"/><path d="m32 424h80v24h-80z" fill="#ffda44"/><path d="m40 400h80v24h-80z" fill="#ffeb99"/><path d="m32 376h80v24h-80z" fill="#ffda44"/><path d="m480 208h-24v96h-32v-96h-24l40-48z" fill="#91cc04"/><path d="m408 424h80v24h-80z" fill="#ffda44"/><path d="m400 400h80v24h-80z" fill="#ffeb99"/><path d="m408 472h80v24h-80z" fill="#ffda44"/><path d="m400 448h80v24h-80z" fill="#ffeb99"/><path d="m400 376h80v24h-80z" fill="#ffda44"/><path d="m408 352h80v24h-80z" fill="#ffeb99"/><path d="m400 328h80v24h-80z" fill="#ffda44"/></g><g><path d="m256 32a88 88 0 1 0 88 88 88.1 88.1 0 0 0 -88-88zm0 160a72 72 0 1 1 72-72 72.083 72.083 0 0 1 -72 72z"/><path d="m368 376h-104v-32h56a40.04 40.04 0 0 0 40-40v-32a8 8 0 0 0 -8-8h-64a39.808 39.808 0 0 0 -24 8.02v-40.31a112 112 0 1 0 -16 0v16.31a39.808 39.808 0 0 0 -24-8.02h-64a8 8 0 0 0 -8 8v32a40.04 40.04 0 0 0 40 40h56v28.9l-37.47-12.49a8 8 0 0 0 -5.06 15.18l42.53 14.18v10.23h-104a8 8 0 0 0 -8 8v32a8 8 0 0 0 8 8h9.44l14.72 73.57a7.99 7.99 0 0 0 7.84 6.43h160a7.99 7.99 0 0 0 7.84-6.43l14.72-73.57h9.44a8 8 0 0 0 8-8v-32a8 8 0 0 0 -8-8zm-80-96h56v24a24.032 24.032 0 0 1 -24 24h-33.87l29.84-17.05a8 8 0 0 0 -7.94-13.9l-44.03 25.16v-18.21a24.032 24.032 0 0 1 24-24zm-128-160a96 96 0 1 1 96 96 96.115 96.115 0 0 1 -96-96zm36.03 158.95 43.84 25.05h-47.87a24.032 24.032 0 0 1 -24-24v-24h56a24.032 24.032 0 0 1 24 24v10.21l-44.03-25.16a8 8 0 1 0 -7.94 13.9zm133.41 209.05h-146.88l-12.8-64h172.48zm30.56-80h-208v-16h208z"/><path d="m296 104a24.032 24.032 0 0 0 -24-24 8 8 0 0 0 -16 0h-8a8 8 0 0 0 -16 0h-8a8 8 0 0 0 0 16v48a8 8 0 0 0 0 16h8a8 8 0 0 0 16 0h8.07a7.992 7.992 0 0 0 15.86 0h.07a23.985 23.985 0 0 0 17.87-40 23.9 23.9 0 0 0 6.13-16zm-24 40h-32v-16h32a8 8 0 0 1 0 16zm0-32h-32v-16h32a8 8 0 0 1 0 16z"/><path d="m32 280h16v72a8 8 0 0 0 8 8h32a8 8 0 0 0 8-8v-72h16a8 8 0 0 0 6.146-13.121l-40-48a8 8 0 0 0 -12.292 0l-40 48a8 8 0 0 0 6.146 13.121zm40-43.5 22.919 27.5h-6.919a8 8 0 0 0 -8 8v72h-16v-72a8 8 0 0 0 -8-8h-6.919z"/><path d="m120 432a8 8 0 0 0 8-8v-24a8 8 0 0 0 -8-8v-16a8 8 0 0 0 -8-8h-80a8 8 0 0 0 -8 8v24a8 8 0 0 0 8 8v8a8 8 0 0 0 -8 8v48a8 8 0 0 0 8 8v16a8 8 0 0 0 8 8h80a8 8 0 0 0 8-8v-24a8 8 0 0 0 -8-8zm-80-48h64v8h-64zm0 48h64v8h-64zm0 24h64v8h-64zm72 32h-64v-8h64zm0-72h-64v-8h64z"/><path d="m400 216h16v88a8 8 0 0 0 8 8h32a8 8 0 0 0 8-8v-88h16a8 8 0 0 0 6.146-13.121l-40-48a8 8 0 0 0 -12.292 0l-40 48a8 8 0 0 0 6.146 13.121zm40-43.5 22.92 27.5h-6.92a8 8 0 0 0 -8 8v88h-16v-88a8 8 0 0 0 -8-8h-6.92z"/><path d="m488 384a8 8 0 0 0 8-8v-24a8 8 0 0 0 -8-8v-16a8 8 0 0 0 -8-8h-80a8 8 0 0 0 -8 8v24a8 8 0 0 0 8 8v8a8 8 0 0 0 -8 8v48a8 8 0 0 0 8 8v8a8 8 0 0 0 -8 8v24a8 8 0 0 0 8 8v16a8 8 0 0 0 8 8h80a8 8 0 0 0 8-8v-24a8 8 0 0 0 -8-8v-8a8 8 0 0 0 8-8v-24a8 8 0 0 0 -8-8zm-80-48h64v8h-64zm0 48h64v8h-64zm0 24h64v8h-64zm0 48h64v8h-64zm72 32h-64v-8h64zm0-48h-64v-8h64zm0-72h-64v-8h64z"/></g></g></svg>