<?xml version="1.0" encoding="iso-8859-1"?>
<!-- Generator: Adobe Illustrator 22.1.0, SVG Export Plug-In . SVG Version: 6.00 Build 0)  -->
<svg xmlns="http://www.w3.org/2000/svg" xmlns:xlink="http://www.w3.org/1999/xlink" version="1.1" id="Layer_1_1_" x="0px" y="0px" viewBox="0 0 64 64" style="enable-background:new 0 0 64 64;" xml:space="preserve" width="512" height="512">
<g>
	<g>
		<g>
			<path style="fill:#69D6F4;" d="M48.45,11.95l-1.98,10.56c-0.27,1.44-1.53,2.49-3,2.49c-0.93,0-1.81-0.42-2.39-1.15l-0.06-0.08     c-1.91-2.38-4.8-3.77-7.85-3.77c-2.67,0-5.23,1.06-7.12,2.95l-0.22,0.22C24.02,24.98,21.56,26,19,26c-1.66,0-3-1.34-3-3     c0-0.65,0.21-1.28,0.6-1.8l1.8-2.4c0.39-0.52,0.6-1.15,0.6-1.8c0-4.54-3.35-8.27-7.72-8.9h-0.01C9.26,9.79,7.51,11.78,6.1,14     h4.83c1.7,0,3.07,1.37,3.07,3.07c0,0.61-0.18,1.2-0.52,1.7l-0.91,1.37C12.2,20.7,12,21.36,12,22.04v5.38     c0,1.53,1.01,2.87,2.48,3.29l2.04,0.58c1.47,0.42,2.48,1.76,2.48,3.29c0,1.89-1.53,3.42-3.42,3.42h-2.23     c-2.05,0-3.93-1.16-4.85-3c-0.92-1.84-2.8-3-4.85-3H2.31H2v23c0,1.1,0.9,2,2,2c0.55,0,1.05-0.22,1.41-0.59     C5.78,56.05,6,55.55,6,55v-8c0-1.1,0.9-2,2-2c0.55,0,1.05,0.22,1.41,0.59C9.78,45.95,10,46.45,10,47v13c0,1.1,0.9,2,2,2     c0.55,0,1.05-0.22,1.41-0.59C13.78,61.05,14,60.55,14,60V44c0-1.1,0.9-2,2-2c0.55,0,1.05,0.22,1.41,0.59     C17.78,42.95,18,43.45,18,44v12c0,1.1,0.9,2,2,2h3v3h3V51c0-1.1,0.9-2,2-2c0.55,0,1.05,0.22,1.41,0.59     C29.78,49.95,30,50.45,30,51v9c0,1.1,0.9,2,2,2c0.55,0,1.05-0.22,1.41-0.59C33.78,61.05,34,60.55,34,60v-3h4v-4     c0-0.63,0.3-1.22,0.8-1.6l2.4-1.8c0.5-0.38,0.8-0.97,0.8-1.6v-4c0-1.1-0.9-2-2-2h-1c-0.55,0-1.05-0.22-1.41-0.59     C37.22,41.05,37,40.55,37,40c0-1.1,0.9-2,2-2h5c0.55,0,1.05-0.22,1.41-0.59C45.78,37.05,46,36.55,46,36c0-1.1-0.9-2-2-2h-2     c-1.1,0-2-0.9-2-2v-3c3.92,0,7.46,1.62,10,4.22V19c0-1.1,0.44-2.1,1.16-2.82C50.39,14.68,49.49,13.26,48.45,11.95z"/>
			<path style="fill:#B4DD7F;" d="M48.45,11.95l-1.98,10.56c-0.27,1.44-1.53,2.49-3,2.49c-0.93,0-1.81-0.42-2.39-1.15l-0.06-0.08     c-1.91-2.38-4.8-3.77-7.85-3.77c-2.67,0-5.23,1.06-7.12,2.95l-0.22,0.22C24.02,24.98,21.56,26,19,26c-1.66,0-3-1.34-3-3     c0-0.65,0.21-1.28,0.6-1.8l1.8-2.4c0.39-0.52,0.6-1.15,0.6-1.8c0-4.54-3.35-8.27-7.72-8.9C15.8,4.29,21.63,2,28,2     C36.3,2,43.7,5.89,48.45,11.95z"/>
			<path style="fill:#B4DD7F;" d="M2.31,32H2v-4c0-5.16,1.5-9.96,4.1-14h4.83c1.7,0,3.07,1.37,3.07,3.07c0,0.61-0.18,1.2-0.52,1.7     l-0.91,1.37C12.2,20.7,12,21.36,12,22.04v5.38c0,1.53,1.01,2.87,2.48,3.29l2.04,0.58c1.47,0.42,2.48,1.76,2.48,3.29     c0,1.89-1.53,3.42-3.42,3.42h-2.23c-2.05,0-3.93-1.16-4.85-3s-2.8-3-4.85-3H2.31z"/>
			<path style="fill:#EF7385;" d="M58,47.08c-0.04-0.03-0.09-0.06-0.14-0.08H58v-4v-4v-4v-4v-4v-4v-4c0-2.21-1.79-4-4-4     c-1.1,0-2.1,0.45-2.83,1.17l-0.01,0.01C50.44,16.9,50,17.9,50,19v14.22v13.86c-2.39,1.37-4,3.96-4,6.92c0,4.42,3.58,8,8,8     s8-3.58,8-8C62,51.04,60.39,48.45,58,47.08z"/>
		</g>
	</g>
	<g>
		<path d="M59,46.525V19c0-2.757-2.243-5-5-5c-0.92,0-1.772,0.267-2.513,0.703C46.688,6.226,37.802,1,28,1C13.112,1,1,13.112,1,28    v27c0,1.654,1.346,3,3,3s3-1.346,3-3v-8c0-0.552,0.448-1,1-1s1,0.448,1,1v13c0,1.654,1.346,3,3,3s3-1.346,3-3V44    c0-0.552,0.448-1,1-1s1,0.448,1,1v12c0,1.654,1.346,3,3,3h3v-2h-3c-0.552,0-1-0.448-1-1V44c0-1.654-1.346-3-3-3s-3,1.346-3,3v16    c0,0.552-0.448,1-1,1s-1-0.448-1-1V47c0-1.654-1.346-3-3-3s-3,1.346-3,3v8c0,0.552-0.448,1-1,1s-1-0.448-1-1V33h0.646    c1.688,0,3.206,0.938,3.96,2.447C8.7,37.639,10.903,39,13.354,39h2.226c2.438,0,4.42-1.982,4.42-4.42    c0-1.963-1.318-3.71-3.206-4.25l-2.038-0.582C13.722,29.452,13,28.495,13,27.42v-5.384c0-0.479,0.141-0.944,0.406-1.343    l0.91-1.365C14.764,18.657,15,17.876,15,17.07c0-2.244-1.826-4.07-4.07-4.07H8.014c1.051-1.397,2.248-2.676,3.563-3.825    C15.267,9.916,18,13.198,18,17c0,0.43-0.142,0.856-0.399,1.2l-1.802,2.401C15.284,21.289,15,22.141,15,23c0,2.206,1.794,4,4,4    c2.847,0,5.522-1.108,7.534-3.12l0.228-0.227C28.472,21.942,30.746,21,33.166,21c2.767,0,5.345,1.239,7.074,3.401l0.062,0.078    C41.076,25.446,42.229,26,43.467,26c1.949,0,3.624-1.39,3.982-3.305l1.547-8.249c0.341,0.528,0.663,1.071,0.967,1.63    C49.364,16.9,49,17.905,49,19v12.027c-2.455-1.859-5.394-2.92-8.514-3.019l-3.021-3.777C36.84,23.449,35.906,23,34.904,23h-1.683    c-1.763,0-3.178,1.454-3.223,3.311c-0.013,0.563-0.386,1.045-0.927,1.2l-0.75,0.214C25.188,28.621,23,31.522,23,34.781v2.955    c0,3.531,2.661,6.49,6.328,7.035c0.85,0.126,1.664,0.459,2.357,0.963l0.902,0.657C32.846,46.579,33,46.882,33,47.2V60    c0,0.552-0.448,1-1,1s-1-0.448-1-1v-9c0-1.654-1.346-3-3-3s-3,1.346-3,3v10h2V51c0-0.552,0.448-1,1-1s1,0.448,1,1v9    c0,1.654,1.346,3,3,3s3-1.346,3-3V47.2c0-0.956-0.462-1.863-1.235-2.426l-0.903-0.657c-0.952-0.692-2.072-1.15-3.238-1.324    C26.944,42.396,25,40.269,25,37.736v-2.955c0-2.371,1.592-4.481,3.871-5.133l0.751-0.214c1.388-0.397,2.343-1.633,2.377-3.076    C32.015,25.7,32.448,25,33.222,25h1.683c0.391,0,0.755,0.175,0.999,0.48L39,29.351V32c0,1.654,1.346,3,3,3h2c0.552,0,1,0.448,1,1    s-0.448,1-1,1h-5c-1.654,0-3,1.346-3,3s1.346,3,3,3h1c0.552,0,1,0.448,1,1v4c0,0.313-0.149,0.612-0.4,0.8L38.2,50.601    C37.448,51.163,37,52.061,37,53v4h2v-4c0-0.313,0.149-0.612,0.4-0.8l2.399-1.801C42.552,49.837,43,48.939,43,48v-4    c0-1.654-1.346-3-3-3h-1c-0.552,0-1-0.448-1-1s0.448-1,1-1h5c1.654,0,3-1.346,3-3s-1.346-3-3-3h-2c-0.552,0-1-0.449-1-1v-1.951    c3.014,0.228,5.81,1.485,8,3.603v12.872c-2.92,1.949-4.438,5.384-3.889,8.912c0.609,3.912,3.918,7.069,7.865,7.507    c0.335,0.037,0.669,0.055,1.002,0.055c2.217,0,4.368-0.81,6.023-2.292C61.907,59,63,56.556,63,54    C63,51.001,61.481,48.188,59,46.525z M10.93,15c1.142,0,2.07,0.929,2.07,2.07c0,0.41-0.12,0.807-0.348,1.148l-0.91,1.365    C11.257,20.313,11,21.161,11,22.036v5.384c0,1.963,1.318,3.71,3.206,4.25l2.038,0.582C17.278,32.548,18,33.505,18,34.58    c0,1.334-1.086,2.42-2.42,2.42h-2.226c-1.688,0-3.206-0.938-3.96-2.447C8.3,32.361,6.097,31,3.646,31H3v-3    c0-4.758,1.337-9.21,3.654-13H10.93z M45.484,22.326C45.302,23.296,44.454,24,43.467,24c-0.627,0-1.211-0.281-1.604-0.772    l-0.062-0.078C39.691,20.513,36.544,19,33.166,19c-2.954,0-5.73,1.15-7.817,3.237l-0.228,0.227C23.486,24.1,21.312,25,19,25    c-1.103,0-2-0.897-2-2c0-0.43,0.142-0.856,0.399-1.2l1.802-2.401C19.716,18.711,20,17.859,20,17c0-4.21-2.682-7.91-6.5-9.346    C17.593,4.729,22.597,3,28,3c7.645,0,14.694,3.429,19.383,9.2L45.484,22.326z M58.668,59.217    c-1.502,1.345-3.442,1.967-5.471,1.738c-3.067-0.34-5.637-2.79-6.109-5.826c-0.451-2.902,0.889-5.723,3.413-7.185L51,47.655V19    c0-1.654,1.346-3,3-3s3,1.346,3,3v3h-4v2h4v2h-2v2h2v2h-4v2h4v2h-2v2h2v2h-4v2h4v2h-2v2h2v2h-4v2h4.582    C59.69,49.262,61,51.549,61,54C61,55.988,60.15,57.89,58.668,59.217z"/>
		<path d="M51,54h-2c0,2.757,2.243,5,5,5v-2C52.346,57,51,55.654,51,54z"/>
		<rect x="28" y="6" width="2" height="2"/>
		<rect x="35" y="13" width="2" height="2"/>
		<rect x="20" y="21" width="2" height="2"/>
		<rect x="21" y="8" width="2" height="2"/>
		<rect x="27" y="15" width="2" height="2"/>
		<rect x="35" y="8" width="2" height="2"/>
		<rect x="23" y="13" width="2" height="2"/>
	</g>
</g>
</svg>
